<svg width="371" height="346" viewBox="0 0 371 346" fill="none" xmlns="http://www.w3.org/2000/svg">
<g clip-path="url(#clip0_8_26)">
<rect x="123.684" y="88.8892" width="25" height="170.873" rx="12.5" transform="rotate(-21 123.684 88.8892)" fill="#88A1D1"/>
<ellipse cx="131" cy="98" rx="21" ry="22" fill="#88A1D1"/>
<ellipse cx="200" cy="228" rx="21" ry="22" fill="#88A1D1"/>
<rect x="99" y="103.676" width="28.4214" height="40" rx="14.2107" transform="rotate(-21 99 103.676)" fill="#0B0B7A"/>
<rect x="190" y="192.185" width="28.4214" height="40" rx="14.2107" transform="rotate(-21 190 192.185)" fill="#0B0B7A"/>
<rect x="105.44" y="137" width="12" height="115" rx="6" transform="rotate(19 105.44 137)" fill="#CDCDCE"/>
<ellipse cx="167.332" cy="176.127" rx="26.5833" ry="4.49646" transform="rotate(-22 167.332 176.127)" fill="white"/>
<rect x="190.684" y="88.8892" width="25" height="170.873" rx="12.5" transform="rotate(-21 190.684 88.8892)" fill="#CDCDCE"/>
<ellipse cx="198" cy="98" rx="21" ry="22" fill="#CDCDCE"/>
<ellipse cx="267" cy="228" rx="21" ry="22" fill="#CDCDCE"/>
<rect x="166" y="103.676" width="28.4214" height="40" rx="14.2107" transform="rotate(-21 166 103.676)" fill="#0B0B7A"/>
<rect x="257" y="192.185" width="28.4214" height="40" rx="14.2107" transform="rotate(-21 257 192.185)" fill="#0B0B7A"/>
<path d="M268.5 191.25C268.5 191.67 268.471 193.999 268.333 193.736C266.506 190.248 265.374 186.376 263.556 182.861C263.183 182.141 263.26 182.981 263.25 183.333C263.198 185.153 262.91 186.938 262.778 188.75C262.771 188.839 262.844 190.3 262.722 190.361C262.637 190.404 262.048 187.885 262 187.667C261.715 186.383 261.869 186.156 261.736 187.486C261.687 187.976 261.272 189.628 260.806 188.583C260.148 187.111 259.745 185.57 258.903 184.167C258.789 183.977 258.972 187.115 258.972 187.833C258.972 189.225 258.25 185.114 258.25 183.722C258.25 182.284 258.218 183.548 258.278 184.319C258.479 186.942 259.649 189.237 260.25 191.75C260.412 192.427 261.75 196.556 261.75 194.056C261.75 191.859 261.778 189.694 262.361 187.556C262.476 187.136 262.608 185.629 263.125 185.514C264.265 185.261 264.485 191.507 264.5 192.333C264.514 193.099 264.5 190.387 264.5 190.25" stroke="white" stroke-width="3" stroke-linecap="round"/>
<path d="M334.301 199.287C343.031 222.027 337.425 248.645 319.723 273.7C302.051 298.712 272.712 321.474 235.752 335.662C198.792 349.849 161.758 352.565 131.889 345.803C101.968 339.028 79.9924 322.998 71.2631 300.258C62.5339 277.518 68.1392 250.9 85.8416 225.845C103.514 200.833 132.853 178.071 169.812 163.883C206.772 149.696 243.807 146.98 273.676 153.742C303.596 160.517 325.572 176.547 334.301 199.287Z" stroke="#CDCDCE" stroke-width="13"/>
<rect x="226" y="110.99" width="77.8739" height="114.909" transform="rotate(-21 226 110.99)" fill="#0B0B7A"/>
<rect x="288" y="201.127" width="53" height="97" transform="rotate(-20 288 201.127)" fill="#0B0B7A"/>
<rect x="55" y="251" width="287" height="108" fill="#0B0B7A"/>
<rect x="67.5448" y="219" width="9" height="32.389" transform="rotate(19 67.5448 219)" fill="#0B0B7A"/>
</g>
<defs>
<clipPath id="clip0_8_26">
<rect width="371" height="346" fill="white"/>
</clipPath>
</defs>
</svg>
