<svg width="420" height="415" viewBox="0 0 420 415" fill="" xmlns="http://www.w3.org/2000/svg">
<rect width="420" height="415" fill="none"/>
<g clip-path="url(#clip0_0_1)">
<path d="M66.1661 381.18C64.9861 381.18 63.8761 380.92 62.8361 380.4C61.8161 379.88 60.9961 379.14 60.3761 378.18L61.6661 376.68C62.2461 377.52 62.9161 378.16 63.6761 378.6C64.4361 379.04 65.2761 379.26 66.1961 379.26C68.7961 379.26 70.0961 377.72 70.0961 374.64V361.92H62.4161V360H72.2861V374.55C72.2861 376.77 71.7661 378.43 70.7261 379.53C69.7061 380.63 68.1861 381.18 66.1661 381.18ZM93.4054 381.18C90.7254 381.18 88.6154 380.41 87.0754 378.87C85.5354 377.33 84.7654 375.05 84.7654 372.03V360H86.9854V371.94C86.9854 374.42 87.5454 376.25 88.6654 377.43C89.7854 378.61 91.3654 379.2 93.4054 379.2C95.4654 379.2 97.0554 378.61 98.1754 377.43C99.2954 376.25 99.8554 374.42 99.8554 371.94V360H102.015V372.03C102.015 375.05 101.245 377.33 99.7054 378.87C98.1854 380.41 96.0854 381.18 93.4054 381.18ZM120.495 381.18C118.935 381.18 117.435 380.93 115.995 380.43C114.575 379.91 113.475 379.25 112.695 378.45L113.565 376.74C114.305 377.46 115.295 378.07 116.535 378.57C117.795 379.05 119.115 379.29 120.495 379.29C121.815 379.29 122.885 379.13 123.705 378.81C124.545 378.47 125.155 378.02 125.535 377.46C125.935 376.9 126.135 376.28 126.135 375.6C126.135 374.78 125.895 374.12 125.415 373.62C124.955 373.12 124.345 372.73 123.585 372.45C122.825 372.15 121.985 371.89 121.065 371.67C120.145 371.45 119.225 371.22 118.305 370.98C117.385 370.72 116.535 370.38 115.755 369.96C114.995 369.54 114.375 368.99 113.895 368.31C113.435 367.61 113.205 366.7 113.205 365.58C113.205 364.54 113.475 363.59 114.015 362.73C114.575 361.85 115.425 361.15 116.565 360.63C117.705 360.09 119.165 359.82 120.945 359.82C122.125 359.82 123.295 359.99 124.455 360.33C125.615 360.65 126.615 361.1 127.455 361.68L126.705 363.45C125.805 362.85 124.845 362.41 123.825 362.13C122.825 361.85 121.855 361.71 120.915 361.71C119.655 361.71 118.615 361.88 117.795 362.22C116.975 362.56 116.365 363.02 115.965 363.6C115.585 364.16 115.395 364.8 115.395 365.52C115.395 366.34 115.625 367 116.085 367.5C116.565 368 117.185 368.39 117.945 368.67C118.725 368.95 119.575 369.2 120.495 369.42C121.415 369.64 122.325 369.88 123.225 370.14C124.145 370.4 124.985 370.74 125.745 371.16C126.525 371.56 127.145 372.1 127.605 372.78C128.085 373.46 128.325 374.35 128.325 375.45C128.325 376.47 128.045 377.42 127.485 378.3C126.925 379.16 126.065 379.86 124.905 380.4C123.765 380.92 122.295 381.18 120.495 381.18ZM142.949 381V361.92H135.569V360H152.549V361.92H145.169V381H142.949ZM198.919 381.18C197.339 381.18 195.879 380.92 194.539 380.4C193.199 379.86 192.039 379.11 191.059 378.15C190.079 377.19 189.309 376.06 188.749 374.76C188.209 373.46 187.939 372.04 187.939 370.5C187.939 368.96 188.209 367.54 188.749 366.24C189.309 364.94 190.079 363.81 191.059 362.85C192.059 361.89 193.229 361.15 194.569 360.63C195.909 360.09 197.369 359.82 198.949 359.82C200.469 359.82 201.899 360.08 203.239 360.6C204.579 361.1 205.709 361.86 206.629 362.88L205.219 364.29C204.359 363.41 203.409 362.78 202.369 362.4C201.329 362 200.209 361.8 199.009 361.8C197.749 361.8 196.579 362.02 195.499 362.46C194.419 362.88 193.479 363.49 192.679 364.29C191.879 365.07 191.249 365.99 190.789 367.05C190.349 368.09 190.129 369.24 190.129 370.5C190.129 371.76 190.349 372.92 190.789 373.98C191.249 375.02 191.879 375.94 192.679 376.74C193.479 377.52 194.419 378.13 195.499 378.57C196.579 378.99 197.749 379.2 199.009 379.2C200.209 379.2 201.329 379 202.369 378.6C203.409 378.2 204.359 377.56 205.219 376.68L206.629 378.09C205.709 379.11 204.579 379.88 203.239 380.4C201.899 380.92 200.459 381.18 198.919 381.18ZM226.102 381.18C224.522 381.18 223.052 380.92 221.692 380.4C220.352 379.86 219.182 379.11 218.182 378.15C217.202 377.17 216.432 376.04 215.872 374.76C215.332 373.46 215.062 372.04 215.062 370.5C215.062 368.96 215.332 367.55 215.872 366.27C216.432 364.97 217.202 363.84 218.182 362.88C219.182 361.9 220.352 361.15 221.692 360.63C223.032 360.09 224.502 359.82 226.102 359.82C227.682 359.82 229.142 360.09 230.482 360.63C231.822 361.15 232.982 361.89 233.962 362.85C234.962 363.81 235.732 364.94 236.272 366.24C236.832 367.54 237.112 368.96 237.112 370.5C237.112 372.04 236.832 373.46 236.272 374.76C235.732 376.06 234.962 377.19 233.962 378.15C232.982 379.11 231.822 379.86 230.482 380.4C229.142 380.92 227.682 381.18 226.102 381.18ZM226.102 379.2C227.362 379.2 228.522 378.99 229.582 378.57C230.662 378.13 231.592 377.52 232.372 376.74C233.172 375.94 233.792 375.02 234.232 373.98C234.672 372.92 234.892 371.76 234.892 370.5C234.892 369.24 234.672 368.09 234.232 367.05C233.792 365.99 233.172 365.07 232.372 364.29C231.592 363.49 230.662 362.88 229.582 362.46C228.522 362.02 227.362 361.8 226.102 361.8C224.842 361.8 223.672 362.02 222.592 362.46C221.512 362.88 220.572 363.49 219.772 364.29C218.992 365.07 218.372 365.99 217.912 367.05C217.472 368.09 217.252 369.24 217.252 370.5C217.252 371.74 217.472 372.89 217.912 373.95C218.372 375.01 218.992 375.94 219.772 376.74C220.572 377.52 221.512 378.13 222.592 378.57C223.672 378.99 224.842 379.2 226.102 379.2ZM248.088 381V360H256.638C258.878 360 260.838 360.45 262.518 361.35C264.218 362.23 265.538 363.46 266.478 365.04C267.418 366.62 267.888 368.44 267.888 370.5C267.888 372.56 267.418 374.38 266.478 375.96C265.538 377.54 264.218 378.78 262.518 379.68C260.838 380.56 258.878 381 256.638 381H248.088ZM250.308 379.08H256.518C258.378 379.08 259.988 378.72 261.348 378C262.728 377.26 263.798 376.25 264.558 374.97C265.318 373.67 265.698 372.18 265.698 370.5C265.698 368.8 265.318 367.31 264.558 366.03C263.798 364.75 262.728 363.75 261.348 363.03C259.988 362.29 258.378 361.92 256.518 361.92H250.308V379.08ZM280.853 369.39H291.953V371.28H280.853V369.39ZM281.093 379.08H293.723V381H278.873V360H293.273V361.92H281.093V379.08ZM332.645 381V360H334.865V381H332.645ZM351.777 381V361.92H344.397V360H361.377V361.92H353.997V381H351.777Z" fill="#ffffff"/>
<rect x="245.966" y="86.946" width="25" height="250" rx="12.5" fill="#ffffff"/>
<rect x="292" y="87" width="25" height="115" rx="12.5" fill="#ffffff"/>
<rect x="292" y="202" width="25" height="82" rx="12.5" transform="rotate(-90 292 202)" fill="#ffffff"/>
<rect x="292" y="247" width="25" height="82" rx="12.5" transform="rotate(-90 292 247)" fill="#ffffff"/>
<rect x="349" y="87" width="25" height="115" rx="12.5" fill="#ffffff"/>
<rect x="349" y="222" width="25" height="115" rx="12.5" fill="#ffffff"/>
<rect x="291" y="222" width="25" height="115" rx="12.5" fill="#ffffff"/>
<rect x="395" y="87" width="25" height="250" rx="12.5" fill="#ffffff"/>
<g clip-path="url(#clip1_0_1)">
<g clip-path="url(#clip2_0_1)">
<rect x="92" y="110.565" width="25" height="250" rx="12.5" transform="rotate(-25 92 110.565)" fill="#ffffff"/>
<rect x="100.274" y="100" width="25" height="250" rx="12.5" transform="rotate(25 100.274 100)" fill="#ffffff"/>
</g>
<g clip-path="url(#clip3_0_1)">
<rect x="75" y="271" width="25" height="61.5855" rx="12.5" transform="rotate(-90 75 271)" fill="#ffffff"/>
<rect x="89.5855" y="215.565" width="25" height="61.5855" rx="12.5" transform="rotate(-25 89.5855 215.565)" fill="#ffffff"/>
</g>
<rect x="54" y="311" width="22" height="100" rx="11" transform="rotate(-90 54 311)" fill="#ffffff"/>
<rect x="126" y="295.565" width="25" height="45.59" rx="12.5" transform="rotate(-25 126 295.565)" fill="#ffffff"/>
<rect x="60.2672" y="285" width="25" height="45.59" rx="12.5" transform="rotate(25 60.2672 285)" fill="#ffffff"/>
</g>
</g>
<defs>
<clipPath id="clip0_0_1">
<rect width="420" height="415" fill="white"/>
</clipPath>
<clipPath id="clip1_0_1">
<rect width="314" height="388" fill="white" transform="translate(-52 20)"/>
</clipPath>
<clipPath id="clip2_0_1">
<rect width="251" height="284" fill="white" transform="translate(-19 90)"/>
</clipPath>
<clipPath id="clip3_0_1">
<rect width="62" height="80" fill="white" transform="translate(75 205)"/>
</clipPath>
</defs>
</svg>
