<?xml version="1.0" standalone="no"?>
<!DOCTYPE svg PUBLIC "-//W3C//DTD SVG 20010904//EN"
 "http://www.w3.org/TR/2001/REC-SVG-20010904/DTD/svg10.dtd">
<svg version="1.0" xmlns="http://www.w3.org/2000/svg"
 width="454.000000pt" height="357.000000pt" viewBox="0 0 454.000000 357.000000"
 preserveAspectRatio="xMidYMid meet">

<g transform="translate(0.000000,357.000000) scale(0.100000,-0.100000)"
fill="#9393c4d3" stroke="none">
<path d="M1098 3294 c-15 -8 -32 -22 -37 -32 -22 -40 -922 -2292 -927 -2319
-12 -62 42 -126 106 -125 54 1 83 21 107 74 11 24 195 485 409 1025 214 540
391 983 394 983 3 0 181 -442 395 -982 215 -541 400 -1004 412 -1030 25 -53
48 -69 104 -70 49 0 96 38 105 86 4 25 -82 250 -451 1175 -251 630 -463 1158
-471 1174 -15 28 -67 57 -101 57 -10 -1 -30 -7 -45 -16z"/>
<path d="M2544 3206 l-34 -34 0 -1155 c0 -1148 0 -1154 20 -1180 31 -39 85
-51 130 -29 75 36 70 -46 70 1210 0 1229 3 1175 -59 1206 -50 26 -88 21 -127
-18z"/>
<path d="M3003 3220 c-21 -12 -36 -32 -43 -57 -8 -26 -10 -181 -8 -498 3 -505
1 -490 64 -520 48 -22 721 -22 764 0 60 31 60 28 60 551 l0 476 -34 34 c-38
38 -77 44 -126 19 -59 -31 -60 -35 -60 -475 l0 -400 -222 2 -223 3 -5 413 -5
414 -33 29 c-39 35 -82 38 -129 9z"/>
<path d="M4104 3206 l-34 -34 0 -1148 c0 -1123 1 -1150 20 -1181 34 -57 117
-61 170 -8 l25 25 3 1145 c3 1260 6 1187 -58 1220 -49 25 -88 19 -126 -19z"/>
<path d="M1103 2065 c-33 -14 -63 -59 -63 -94 0 -11 24 -80 54 -153 l55 -133
-102 -5 c-56 -3 -112 -10 -123 -17 -51 -29 -56 -125 -9 -172 25 -26 26 -26
223 -29 144 -2 203 1 221 10 36 20 63 62 63 99 -1 19 -40 129 -90 249 -77 187
-93 218 -122 238 -38 25 -62 27 -107 7z"/>
<path d="M3001 1884 c-50 -35 -51 -50 -51 -536 0 -508 0 -506 70 -540 45 -22
99 -10 130 29 19 25 20 38 20 434 l0 409 225 0 225 0 0 -401 c0 -358 2 -404
17 -430 28 -47 98 -65 150 -38 53 28 53 30 53 543 l0 475 -31 36 -31 35 -377
0 c-332 0 -379 -2 -400 -16z"/>
<path d="M755 1222 c-42 -26 -47 -34 -93 -152 -54 -140 -55 -144 -39 -182 21
-48 50 -71 95 -71 61 0 80 17 122 109 l39 84 273 0 273 0 24 -62 c33 -85 49
-108 88 -125 59 -24 122 7 143 72 12 37 5 63 -58 210 -61 143 -32 135 -471
135 -337 0 -368 -2 -396 -18z"/>
<path d="M680 314 c0 -25 5 -55 12 -67 11 -21 11 -21 19 -2 4 11 8 41 8 68 1
41 -2 47 -19 47 -17 0 -20 -7 -20 -46z"/>
<path d="M930 298 c7 -88 30 -91 30 -4 0 56 -3 66 -17 66 -16 0 -17 -8 -13
-62z"/>
<path d="M1238 347 c-21 -22 -16 -38 22 -66 17 -12 30 -29 30 -37 0 -23 24
-11 28 13 2 14 -7 28 -27 42 -16 12 -31 31 -33 43 -3 21 -4 21 -20 5z"/>
<path d="M1305 350 c3 -5 8 -10 11 -10 2 0 4 5 4 10 0 6 -5 10 -11 10 -5 0 -7
-4 -4 -10z"/>
<path d="M1510 349 c0 -5 5 -7 10 -4 6 3 10 8 10 11 0 2 -4 4 -10 4 -5 0 -10
-5 -10 -11z"/>
<path d="M1550 290 c0 -63 2 -70 20 -70 18 0 20 7 20 70 0 63 -2 70 -20 70
-18 0 -20 -7 -20 -70z"/>
<path d="M1615 350 c3 -5 8 -10 11 -10 2 0 4 5 4 10 0 6 -5 10 -11 10 -5 0 -7
-4 -4 -10z"/>
<path d="M2040 340 c-50 -50 8 -145 67 -111 16 9 16 10 -3 11 -37 0 -60 52
-44 96 11 29 6 30 -20 4z"/>
<path d="M2640 290 c0 -56 3 -70 15 -70 12 0 15 14 15 70 0 56 -3 70 -15 70
-12 0 -15 -14 -15 -70z"/>
<path d="M2709 341 c6 -11 11 -34 11 -51 0 -17 -5 -40 -11 -51 -10 -19 -9 -20
11 -9 47 25 47 95 0 120 -20 11 -21 10 -11 -9z"/>
<path d="M2955 290 c0 -60 3 -70 18 -70 15 0 17 10 17 70 0 60 -2 70 -17 70
-15 0 -18 -10 -18 -70z"/>
<path d="M3025 350 c3 -5 8 -10 11 -10 2 0 4 5 4 10 0 6 -5 10 -11 10 -5 0 -7
-4 -4 -10z"/>
<path d="M3440 290 c0 -60 3 -70 18 -70 15 0 17 10 17 70 0 60 -2 70 -17 70
-15 0 -18 -10 -18 -70z"/>
<path d="M3670 349 c0 -5 5 -7 10 -4 6 3 10 8 10 11 0 2 -4 4 -10 4 -5 0 -10
-5 -10 -11z"/>
<path d="M3710 290 c0 -63 2 -70 20 -70 18 0 20 7 20 70 0 63 -2 70 -20 70
-18 0 -20 -7 -20 -70z"/>
<path d="M3775 350 c3 -5 8 -10 11 -10 2 0 4 5 4 10 0 6 -5 10 -11 10 -5 0 -7
-4 -4 -10z"/>
<path d="M2097 336 c-7 -19 18 -42 28 -26 8 13 -1 40 -14 40 -5 0 -11 -6 -14
-14z"/>
<path d="M2330 331 c-15 -29 -12 -67 6 -85 8 -9 16 -16 18 -16 1 0 2 27 1 60
0 62 -7 74 -25 41z"/>
<path d="M2405 290 c0 -63 13 -74 29 -27 6 17 6 37 0 54 -16 47 -29 36 -29
-27z"/>
<path d="M633 264 c-8 -21 13 -42 28 -27 13 13 5 43 -11 43 -6 0 -13 -7 -17
-16z"/>
<path d="M1226 262 c-8 -13 11 -35 23 -28 16 10 14 36 -3 36 -8 0 -17 -4 -20
-8z"/>
<path d="M3020 230 c-13 -8 -12 -10 3 -10 9 0 17 5 17 10 0 12 -1 12 -20 0z"/>
</g>
</svg>
